<svg enable-background="new 0 0 751.1 200" viewBox="0 0 751.1 200" xmlns="http://www.w3.org/2000/svg"><path d="m0 4.5v190.9h143.7v-48.9h-84.7v-142z"/><path d="m341.4 121.6c0 53-28.7 78.3-87.1 78.3s-87.4-25.4-87.4-78.3v-117.1h59v104c0 19.5 0 43.9 28.7 43.9 27.9 0 27.9-24.3 27.9-43.9v-104h59z"/><path d="m430.9 131.3c-.1 4.3.7 8.5 2.2 12.6 4.3 11.5 17.2 13.9 28.2 13.9 9.6 0 24.4-3.2 24.4-17.4 0-9.9-8.3-12.6-41.3-21.9-30.3-8.5-64.9-16.8-64.9-55.4-.1-44.1 37.7-63.1 77.1-63.1 41.5 0 78.3 15.8 79.9 62.3h-55.8c1.1-7.2-2.2-12-7-15.2-4.8-3.5-11.5-4.8-17.4-4.8-8 0-21.2 2.1-21.2 12.8 1.1 13.6 28.4 16.6 55.5 24.1s53.9 20 53.9 55.1c0 49.7-45.9 65.8-88.5 65.8-21.7 0-83.7-7.8-84.2-68.7z"/><path d="m692.1 4.5v66.3h-55.3v-66.3h-59v190.9h59v-75.7h55.3v75.7h59v-190.9z"/></svg>